<?xml version="1.0" encoding="UTF-8"?>
<!DOCTYPE svg PUBLIC "-//W3C//DTD SVG 1.1//EN" "http://www.w3.org/Graphics/SVG/1.1/DTD/svg11.dtd">
<!-- Creator: CorelDRAW -->
<svg xmlns="http://www.w3.org/2000/svg" xml:space="preserve" width="210.95mm" height="55.9717mm" version="1.1" style="shape-rendering:geometricPrecision; text-rendering:geometricPrecision; image-rendering:optimizeQuality; fill-rule:evenodd; clip-rule:evenodd"
viewBox="0 0 21081.67 5593.64"
 xmlns:xlink="http://www.w3.org/1999/xlink"
 xmlns:xodm="http://www.corel.com/coreldraw/odm/2003">
 <defs>
  <style type="text/css">
   <![CDATA[
    .str0 {stroke:#00456A;stroke-width:49.97;stroke-miterlimit:10}
    .fil4 {fill:#FEFEFE}
    .fil2 {fill:#00456A}
    .fil6 {fill:#FEFEFE;fill-rule:nonzero}
    .fil3 {fill:#FEFEFE;fill-rule:nonzero}
    .fil1 {fill:#FEFEFE;fill-rule:nonzero}
    .fil0 {fill:#00456A;fill-rule:nonzero}
    .fil5 {fill:#00456A;fill-rule:nonzero}
   ]]>
  </style>
 </defs>
 <g id="Ebene_x0020_1">
  <metadata id="CorelCorpID_0Corel-Layer"/>
  <g id="SimCATS_x0020_Symbol">
   <path id="SimCATS" class="fil0" d="M8389.43 1895.06l293.55 0c60.74,0 110.34,-49.6 110.34,-110.34 0,-357.32 -296.59,-689.34 -853.34,-689.34 -614.44,0 -899.9,278.37 -899.9,696.44 0,950.51 1274.44,639.75 1274.44,1135.75 0,214.6 -114.39,289.51 -392.76,289.51 -381.62,0 -414.02,-264.2 -428.19,-332.02 -11.13,-43.52 -42.51,-97.18 -103.24,-97.18l-289.51 0c-60.74,0 -111.35,50.62 -111.35,111.35 0,335.06 286.47,767.3 932.29,767.3 457.54,0 911.03,-192.33 911.03,-738.95 0,-985.95 -1275.44,-678.21 -1275.44,-1135.75 0,-196.39 142.72,-245.98 375.54,-245.98 231.81,0 306.72,131.6 342.14,250.03 18.23,67.82 53.66,99.2 114.39,99.2zm1053.76 -799.68c-172.08,0 -293.55,121.47 -293.55,293.55 0,171.07 121.47,292.55 293.55,292.55 175.13,0 295.58,-121.47 295.58,-292.55 0,-172.08 -120.45,-293.55 -295.58,-293.55zm-146.78 2535.72l296.59 0c60.74,0 110.34,-49.6 110.34,-110.34l0 -1564.95c0,-60.74 -49.6,-110.34 -110.34,-110.34l-296.59 0c-60.73,0 -110.33,49.6 -110.33,110.34l0 1564.95c0,60.74 49.6,110.34 110.33,110.34zm2832.3 -1821.06c-228.78,0 -418.07,81.99 -550.67,242.94 -128.56,-186.25 -317.85,-246.98 -491.96,-246.98 -218.65,0 -350.24,71.86 -453.49,207.51l0 -57.69c0,-60.74 -50.62,-110.34 -111.35,-110.34l-296.58 0c-60.73,0 -110.34,49.6 -110.34,110.34l0 1564.95c0,60.74 49.61,110.34 110.34,110.34l296.58 0c60.73,0 111.35,-49.6 111.35,-110.34l0 -864.47c0,-246.98 21.26,-418.06 285.46,-418.06 228.77,0 250.03,142.72 250.03,414.01l0 868.52c0,60.74 49.6,110.34 110.33,110.34l299.63 0c57.7,0 107.3,-49.6 107.3,-110.34l0 -868.52c0,-242.94 36.44,-414.01 282.42,-414.01 231.8,0 253.06,142.72 253.06,414.01l0 868.52c0,60.74 50.62,110.34 111.35,110.34l296.59 0c60.74,0 110.34,-49.6 110.34,-110.34l0 -810.82c0,-514.24 -60.73,-899.9 -610.39,-899.9zm2788.79 928.24l-368.47 0c-70.86,0 -85.03,56.68 -93.13,110.34 -17.21,172.08 -145.77,332.02 -406.92,332.02 -260.16,0 -470.7,-192.33 -470.7,-559.79l0 -471.71c0,-367.45 210.55,-567.88 470.7,-567.88 261.15,0 378.58,175.12 406.92,346.19 11.13,71.87 50.62,96.17 90.09,96.17l364.42 0c52.64,0 81.99,-35.43 77.94,-89.08 -28.34,-432.24 -367.45,-839.16 -939.38,-839.16 -570.92,0 -988.99,422.11 -988.99,1046.68l0 478.8c0,624.57 418.07,1045.67 988.99,1045.67 571.93,0 914.07,-421.1 946.46,-842.2 4.05,-39.49 -28.34,-86.05 -77.94,-86.05zm2445.98 717.7l-785.51 -2246.21c-11.13,-32.4 -46.56,-77.95 -107.3,-77.95l-399.84 0c-60.74,0 -96.17,45.55 -107.3,77.95l-806.78 2274.55c-7.09,22.27 -18.22,46.56 -18.22,67.82 0,46.57 36.45,78.96 82,78.96l340.12 0c28.34,0 70.87,-14.17 85.04,-64.79l142.73 -428.18 929.25 0 142.73 432.24c7.09,28.34 35.43,60.73 92.11,60.73l357.33 0c46.56,0 81.99,-32.39 81.99,-78.96 0,-24.29 -24.29,-85.03 -28.34,-96.16zm-1417.16 -781.47l317.85 -939.39 302.67 939.39 -620.52 0zm1249.55 -1168.15l0 -264.2c0,-60.74 50.62,-110.34 111.35,-110.34l1702.62 0c60.74,0 111.35,49.6 111.35,110.34l0 264.2c0,60.73 -50.61,110.33 -111.35,110.33l-592.17 0 0 1904.07c0,60.74 -50.62,110.34 -111.35,110.34l-295.58 0c-60.74,0 -111.35,-49.6 -111.35,-110.34l0 -1904.07 -592.18 0c-60.73,0 -111.35,-49.6 -111.35,-110.33zm3442.42 388.7l293.55 0c60.74,0 110.34,-49.6 110.34,-110.34 0,-357.32 -296.59,-689.34 -853.34,-689.34 -614.44,0 -899.9,278.37 -899.9,696.44 0,950.51 1274.44,639.75 1274.44,1135.75 0,214.6 -114.39,289.51 -392.76,289.51 -381.62,0 -414.02,-264.2 -428.19,-332.02 -11.13,-43.52 -42.51,-97.18 -103.24,-97.18l-289.51 0c-60.74,0 -111.35,50.62 -111.35,111.35 0,335.06 286.47,767.3 932.29,767.3 457.54,0 911.03,-192.33 911.03,-738.95 0,-985.95 -1275.44,-678.21 -1275.44,-1135.75 0,-196.39 142.72,-245.98 375.54,-245.98 231.81,0 306.72,131.6 342.14,250.03 18.23,67.82 53.66,99.2 114.39,99.2z"/>
   <path id="Simulation_x0020_Software" class="fil0" d="M7617.36 4656.98l102.72 0c21.25,0 38.6,-17.36 38.6,-38.61 0,-125.02 -103.76,-241.2 -298.57,-241.2 -214.98,0 -314.86,97.4 -314.86,243.68 0,332.58 445.91,223.84 445.91,397.39 0,75.08 -40.01,101.3 -137.42,101.3 -133.52,0 -144.86,-92.44 -149.82,-116.17 -3.9,-15.23 -14.87,-34.01 -36.13,-34.01l-101.3 0c-21.25,0 -38.96,17.71 -38.96,38.97 0,117.23 100.24,268.46 326.19,268.46 160.09,0 318.77,-67.29 318.77,-258.55 0,-344.97 -446.27,-237.3 -446.27,-397.39 0,-68.71 49.94,-86.07 131.4,-86.07 81.11,0 107.32,46.04 119.71,87.48 6.38,23.73 18.77,34.71 40.02,34.71zm368.7 -279.8c-60.21,0 -102.72,42.5 -102.72,102.72 0,59.85 42.5,102.36 102.72,102.36 61.27,0 103.42,-42.5 103.42,-102.36 0,-60.21 -42.15,-102.72 -103.42,-102.72zm-51.36 887.22l103.77 0c21.26,0 38.61,-17.36 38.61,-38.61l0 -547.56c0,-21.25 -17.35,-38.61 -38.61,-38.61l-103.77 0c-21.25,0 -38.61,17.36 -38.61,38.61l0 547.56c0,21.25 17.36,38.61 38.61,38.61zm990.99 -637.17c-80.04,0 -146.27,28.69 -192.67,85.01 -44.98,-65.17 -111.21,-86.43 -172.13,-86.43 -76.5,0 -122.54,25.15 -158.67,72.61l0 -20.2c0,-21.25 -17.71,-38.61 -38.97,-38.61l-103.77 0c-21.25,0 -38.61,17.36 -38.61,38.61l0 547.56c0,21.25 17.36,38.61 38.61,38.61l103.77 0c21.26,0 38.97,-17.36 38.97,-38.61l0 -302.47c0,-86.42 7.44,-146.28 99.88,-146.28 80.04,0 87.48,49.94 87.48,144.86l0 303.89c0,21.25 17.35,38.61 38.61,38.61l104.83 0c20.19,0 37.55,-17.36 37.55,-38.61l0 -303.89c0,-85 12.74,-144.86 98.81,-144.86 81.11,0 88.54,49.94 88.54,144.86l0 303.89c0,21.25 17.71,38.61 38.97,38.61l103.77 0c21.25,0 38.61,-17.36 38.61,-38.61l0 -283.7c0,-179.92 -21.26,-314.86 -213.58,-314.86zm856.76 12.39l-103.42 0c-21.25,0 -38.96,17.36 -38.96,38.61l0 332.58c0,75.08 -37.55,116.17 -94.92,116.17 -56.31,0 -99.88,-41.08 -99.88,-116.17l0 -332.58c0,-21.25 -17.36,-38.61 -38.61,-38.61l-103.77 0c-21.26,0 -38.97,17.36 -38.97,38.61l0 306.37c0,174.97 65.17,292.2 216.4,292.2 82.53,0 123.61,-26.2 159.74,-71.19l0 20.19c0,21.25 17.71,38.61 38.96,38.61l103.42 0c21.25,0 38.96,-17.36 38.96,-38.61l0 -547.56c0,-21.25 -17.71,-38.61 -38.96,-38.61zm221.36 624.78l103.77 0c21.26,0 38.61,-17.36 38.61,-38.61l0 -797.26c0,-21.25 -17.35,-38.61 -38.61,-38.61l-103.77 0c-21.25,0 -38.61,17.36 -38.61,38.61l0 797.26c0,21.25 17.36,38.61 38.61,38.61zm779.9 -38.61l0 -354.89c0,-131.4 -55.26,-243.68 -262.44,-243.68 -190.19,0 -219.94,114.76 -236.23,170 -2.48,8.5 -3.9,19.84 -3.9,23.74 0,15.94 12.75,27.27 28.69,27.27l108.73 0c16.29,0 25.14,-9.92 29.04,-22.32 7.45,-21.25 15.94,-48.88 73.66,-48.88 48.52,0 95.98,16.3 95.98,88.9l0 19.83 -82.52 0c-52.43,0 -275.9,-12.39 -275.9,196.22 0,156.19 108.73,194.8 202.23,194.8l13.81 0c59.85,0 118.65,-24.78 142.37,-71.19l0 20.19c0,21.25 17.71,38.61 38.97,38.61l88.54 0c21.25,0 38.96,-17.36 38.96,-38.61zm-242.61 -214.98l76.14 0 0 18.77c0,61.27 -1.06,109.8 -98.46,109.8l-15.23 0c-32.22,0 -78.62,-3.55 -78.62,-57.38 0,-71.19 63.74,-71.19 116.17,-71.19zm602.46 253.59l100.94 0c21.26,0 38.97,-17.36 38.97,-38.61l0 -85.01c0,-21.25 -17.71,-38.96 -38.97,-38.96l-63.75 0c-41.08,0 -44.98,-22.32 -44.98,-46.04l0 -258.56 108.73 0c21.26,0 38.97,-17.71 38.97,-38.96l0 -80.05c0,-21.25 -17.71,-38.61 -38.97,-38.61l-108.73 0 0 -123.6c0,-21.26 -17.35,-38.97 -38.61,-38.97l-99.88 0c-21.25,0 -38.61,17.71 -38.61,38.97l0 63.75c0,47.46 -18.77,59.85 -74.02,59.85 -21.25,0 -38.61,17.36 -38.61,38.61l0 80.05c0,21.25 17.36,38.96 38.61,38.96l74.02 0 0 291.14c0,107.32 59.85,176.03 184.88,176.03zm348.51 -887.22c-60.21,0 -102.72,42.5 -102.72,102.72 0,59.85 42.5,102.36 102.72,102.36 61.27,0 103.42,-42.5 103.42,-102.36 0,-60.21 -42.15,-102.72 -103.42,-102.72zm-51.36 887.22l103.77 0c21.26,0 38.61,-17.36 38.61,-38.61l0 -547.56c0,-21.25 -17.35,-38.61 -38.61,-38.61l-103.77 0c-21.25,0 -38.61,17.36 -38.61,38.61l0 547.56c0,21.25 17.36,38.61 38.61,38.61zm261.04 -344.97l0 65.17c0,174.97 127.51,292.2 285.12,292.2 157.25,0 284.75,-117.23 284.75,-292.2l0 -65.17c0,-174.96 -127.5,-292.2 -284.75,-292.2 -157.61,0 -285.12,117.24 -285.12,292.2zm181.35 91.38l0 -117.59c0,-74.73 44.97,-116.18 103.77,-116.18 58.79,0 103.76,41.44 103.76,116.18l0 117.59c0,75.08 -44.97,116.17 -103.76,116.17 -58.8,0 -103.77,-41.08 -103.77,-116.17zm539.76 253.59l103.77 0c21.26,0 38.97,-17.36 38.97,-38.61l0 -332.57c0,-74.73 44.98,-116.18 103.41,-116.18 58.79,0 103.77,41.44 103.77,116.18l0 332.57c0,21.25 17.71,38.61 38.97,38.61l103.41 0c21.26,0 38.97,-17.36 38.97,-38.61l0 -306.37c0,-174.96 -66.24,-292.2 -219.95,-292.2 -83.94,0 -132.46,26.21 -168.58,71.2l0 -20.2c0,-21.25 -17.71,-38.61 -38.97,-38.61l-103.77 0c-21.25,0 -38.61,17.36 -38.61,38.61l0 547.56c0,21.25 17.36,38.61 38.61,38.61zm1411.76 -607.42l102.72 0c21.25,0 38.6,-17.36 38.6,-38.61 0,-125.02 -103.76,-241.2 -298.57,-241.2 -214.98,0 -314.86,97.4 -314.86,243.68 0,332.58 445.91,223.84 445.91,397.39 0,75.08 -40.01,101.3 -137.42,101.3 -133.52,0 -144.86,-92.44 -149.82,-116.17 -3.9,-15.23 -14.87,-34.01 -36.13,-34.01l-101.3 0c-21.25,0 -38.96,17.71 -38.96,38.97 0,117.23 100.24,268.46 326.19,268.46 160.09,0 318.77,-67.29 318.77,-258.55 0,-344.97 -446.27,-237.3 -446.27,-397.39 0,-68.71 49.94,-86.07 131.4,-86.07 81.11,0 107.32,46.04 119.71,87.48 6.38,23.73 18.77,34.71 40.02,34.71zm247.21 262.44l0 65.17c0,174.97 127.51,292.2 285.12,292.2 157.25,0 284.75,-117.23 284.75,-292.2l0 -65.17c0,-174.96 -127.5,-292.2 -284.75,-292.2 -157.61,0 -285.12,117.24 -285.12,292.2zm181.35 91.38l0 -117.59c0,-74.73 44.97,-116.18 103.77,-116.18 58.79,0 103.76,41.44 103.76,116.18l0 117.59c0,75.08 -44.97,116.17 -103.76,116.17 -58.8,0 -103.77,-41.08 -103.77,-116.17zm869.86 -252.53l0 -80.05c0,-21.25 -17.71,-38.61 -38.97,-38.61l-104.83 0 0 -37.54c0,-36.13 9.91,-52.42 44.98,-52.42l59.85 0c21.26,0 38.97,-17.36 38.97,-38.61l0 -82.53c0,-21.25 -17.71,-38.61 -38.97,-38.61l-59.85 0c-136,0 -225.97,44.98 -225.97,213.58l0 36.12 -74.02 0c-21.25,0 -38.61,17.36 -38.61,38.61l0 80.05c0,21.25 17.36,38.96 38.61,38.96l74.02 0 0 428.56c0,21.25 17.36,38.61 38.61,38.61l103.77 0c21.25,0 38.61,-17.36 38.61,-38.61l0 -428.56 104.83 0c21.26,0 38.97,-17.71 38.97,-38.96zm341.07 506.12l100.94 0c21.26,0 38.97,-17.36 38.97,-38.61l0 -85.01c0,-21.25 -17.71,-38.96 -38.97,-38.96l-63.75 0c-41.08,0 -44.98,-22.32 -44.98,-46.04l0 -258.56 108.73 0c21.26,0 38.97,-17.71 38.97,-38.96l0 -80.05c0,-21.25 -17.71,-38.61 -38.97,-38.61l-108.73 0 0 -123.6c0,-21.26 -17.35,-38.97 -38.61,-38.97l-99.88 0c-21.25,0 -38.61,17.71 -38.61,38.97l0 63.75c0,47.46 -18.77,59.85 -74.02,59.85 -21.25,0 -38.61,17.36 -38.61,38.61l0 80.05c0,21.25 17.36,38.96 38.61,38.96l74.02 0 0 291.14c0,107.32 59.85,176.03 184.88,176.03zm1084.49 -624.78l-116.53 0c-19.84,0 -33.65,12.4 -39.66,38.61l-78.98 323.73 -97.4 -323.73c-7.45,-24.78 -19.84,-38.61 -41.09,-38.61l-106.25 0c-25.14,0 -35.06,18.78 -41.43,38.61l-93.5 337.54 -88.9 -337.54c-6.02,-23.73 -19.83,-38.61 -41.08,-38.61l-115.11 0c-15.94,0 -28.69,12.4 -28.69,28.69 0,6.38 2.48,17.71 10.27,38.97l174.61 530.9c3.9,12.4 16.29,26.21 37.55,26.21l91.37 0c22.32,0 33.65,-16.29 37.55,-28.69l108.73 -377.55 110.86 378.62c2.84,8.85 15.23,27.62 37.55,27.62l86.42 0c14.88,0 29.75,-8.85 36.13,-26.21l173.55 -527.37c3.9,-11.33 11.33,-31.17 11.33,-42.5 0,-16.29 -11.33,-28.69 -27.27,-28.69zm577.11 586.17l0 -354.89c0,-131.4 -55.26,-243.68 -262.44,-243.68 -190.2,0 -219.95,114.76 -236.24,170 -2.48,8.5 -3.9,19.84 -3.9,23.74 0,15.94 12.75,27.27 28.69,27.27l108.73 0c16.29,0 25.14,-9.92 29.04,-22.32 7.45,-21.25 15.94,-48.88 73.67,-48.88 48.52,0 95.98,16.3 95.98,88.9l0 19.83 -82.52 0c-52.43,0 -275.91,-12.39 -275.91,196.22 0,156.19 108.73,194.8 202.23,194.8l13.81 0c59.86,0 118.66,-24.78 142.38,-71.19l0 20.19c0,21.25 17.71,38.61 38.97,38.61l88.54 0c21.25,0 38.96,-17.36 38.96,-38.61zm-242.61 -214.98l76.14 0 0 18.77c0,61.27 -1.06,109.8 -98.46,109.8l-15.23 0c-32.23,0 -78.63,-3.55 -78.63,-57.38 0,-71.19 63.75,-71.19 116.18,-71.19zm412.26 253.59l101.3 0c21.26,0 38.97,-17.36 38.97,-38.61l0 -256.43c0,-136 64.81,-148.4 144.86,-148.4l16.29 0c21.25,0 38.61,-17.71 38.61,-38.97l0 -103.77c0,-21.25 -17.36,-38.61 -38.61,-38.61l-13.81 0c-66.23,0 -121.13,33.65 -155.13,80.05l0 -41.44c0,-21.25 -17.36,-38.61 -38.61,-38.61l-93.86 0c-21.25,0 -38.61,17.36 -38.61,38.61l0 547.56c0,21.25 17.36,38.61 38.61,38.61zm595.99 -250.05l0 -7.44 343.55 0c21.25,0 38.96,-17.36 38.96,-38.61l0 -53.84c0,-162.22 -125.02,-287.24 -278.73,-287.24 -156.2,0 -285.12,117.24 -285.12,292.2l0 65.17c0,174.97 128.92,292.2 285.12,292.2 101.29,0 204.71,-49.94 256.07,-159.73 2.48,-4.96 7.44,-16.29 7.44,-23.74 0,-16.29 -11.33,-28.68 -27.27,-28.68l-107.67 0c-23.73,0 -35.06,17.35 -40.01,22.31 -28.69,30.11 -48.53,40.02 -88.54,40.02 -58.8,0 -103.77,-49.94 -103.77,-112.63zm207.54 -124.67l-207.54 0 0 -8.85c0,-62.33 44.97,-103.77 103.77,-103.77 58.79,0 103.76,40.02 103.76,102.37l0 10.26z"/>
   <g id="Kreis">
    <path id="Hintergrund" class="fil0" d="M5189.35 2811.82c0,1320.77 -1070.7,2391.49 -2391.52,2391.49 -1320.78,0 -2391.49,-1070.72 -2391.49,-2391.49 0,-1320.76 1070.71,-2391.49 2391.49,-2391.49 1320.82,0 2391.52,1070.73 2391.52,2391.49z"/>
    <path id="Outline" class="fil0" d="M2419.41 25.92c-1530.34,208.44 -2601.94,1618 -2393.49,3148.33 208.44,1530.3 1617.99,2601.91 3148.33,2393.46 1530.34,-208.45 2601.94,-1618 2393.5,-3148.3 -208.45,-1530.34 -1618,-2601.94 -3148.34,-2393.49zm21.23 155.87c1441.93,-196.41 2774.84,816.88 2971.24,2258.84 196.41,1441.93 -816.92,2774.84 -2258.85,2971.24 -1441.93,196.41 -2774.84,-816.92 -2971.23,-2258.85 -196.42,-1441.97 816.92,-2774.84 2258.84,-2971.23z"/>
   </g>
   <g id="Waben">
    <g id="Wabe_x0020_5">
     <g>
      <path class="fil1" d="M1685.97 931.71l575.14 329.79 -72.61 97.98 -575.14 -329.79 71.3 -98.71 1.31 0.73zm-72.61 97.98c-31.07,-17.81 -40,-54.2 -19.96,-81.25 20.05,-27.05 61.5,-34.54 92.57,-16.73l-72.61 97.98zm-13.38 22.59l-133.88 -4.44 -0.02 1.18 0.4 -9 1.01 -8.87 1.61 -8.68 2.2 -8.51 2.77 -8.34 3.3 -8.01 3.79 -7.75 4.29 -7.49 4.74 -7.18 5.24 -6.91 5.66 -6.59 6 -6.16 6.42 -5.87 6.85 -5.53 7.15 -5.11 7.55 -4.74 7.85 -4.32 8.19 -3.9 8.44 -3.41 8.77 -2.98 9.16 -2.48 9.29 -1.92 9.56 -1.38 9.77 -0.77 9.88 -0.16 10.1 0.51 10.1 1.2 10 1.87 9.89 2.56 9.81 3.28 9.58 3.98 9.2 4.61 -70 99.44 -0.31 -0.15 -0.09 -0.04 0.04 0.02 0 0 0.07 0.01 0.13 0.02 0.11 0.01 -0.07 0 -0.12 0.01 -0.27 0.04 -0.4 0.08 -0.41 0.12 -0.6 0.2 -0.75 0.31 -0.76 0.36 -0.85 0.46 -0.85 0.54 -0.93 0.67 -0.89 0.71 -0.92 0.85 -0.96 0.98 -0.84 0.97 -0.8 1.07 -0.78 1.18 -0.73 1.25 -0.65 1.35 -0.58 1.4 -0.47 1.41 -0.4 1.56 -0.31 1.67 -0.21 1.74 -0.08 1.89 -0.02 1.18zm0.02 -1.18c-0.3,32.39 -30.54,58.18 -67.52,57.61 -36.98,-0.57 -66.7,-27.3 -66.4,-59.69l133.92 2.08zm-150.88 518.56l16.99 -521.82 133.88 4.44 -16.99 521.82 -0.09 1.79 -133.79 -6.23zm133.88 4.44c-1.05,32.37 -31.88,57.61 -68.85,56.39 -36.97,-1.22 -66.08,-28.46 -65.03,-60.83l133.88 4.44zm10.13 27.32l-72.57 98 -0.22 -0.13 -4.7 -2.75 -4.61 -2.79 -4.46 -2.81 -4.31 -2.81 -4.33 -2.96 -4.35 -3.15 -4.21 -3.25 -4.2 -3.46 -4.07 -3.64 -3.98 -3.85 -3.96 -4.22 -3.79 -4.48 -3.54 -4.72 -3.2 -4.8 -3 -5.16 -2.61 -5.25 -2.19 -5.16 -1.87 -5.28 -1.47 -5.11 -1.16 -4.99 -0.88 -4.91 -0.62 -4.69 -0.42 -4.55 -0.24 -4.36 -0.12 -4.17 -0.01 -4.19 0.07 -4.05 0.14 -3.96 0.18 -3.96 0.23 -3.94 0.24 -4 0.27 -4.08 133.7 8.01 -0.25 3.74 -0.22 3.46 -0.17 3.2 -0.14 2.84 -0.08 2.54 -0.05 2.15 0.01 1.75 0.04 1.51 0.06 1.08 0.06 0.67 0.04 0.33 -0.02 -0.09 -0.08 -0.33 -0.17 -0.59 -0.33 -0.92 -0.39 -0.92 -0.55 -1.09 -0.64 -1.12 -0.54 -0.8 -0.58 -0.78 -0.49 -0.58 -0.32 -0.34 0.02 0.01 0.29 0.26 0.56 0.46 0.95 0.73 1.23 0.89 1.67 1.14 2.15 1.41 2.44 1.53 2.77 1.67 3.18 1.87 -0.22 -0.13zm0.22 0.13c31,17.92 39.78,54.34 19.63,81.32 -20.16,26.98 -61.64,34.34 -92.64,16.42l73.01 -97.74zm492.56 421.86l-565.35 -324 72.57 -98 565.35 324 2.28 1.37 -74.85 96.63zm72.57 -98c31.07,17.81 40.02,54.2 19.99,81.25 -20.04,27.05 -61.49,34.56 -92.56,16.75l72.57 -98zm32.57 -1.67l133.84 5.14 -0.05 -5.04 -0.02 10.42 -1.26 10.26 -2.41 9.83 -3.38 9.23 -4.25 8.74 -5.01 8.17 -5.57 7.53 -6.02 6.9 -6.44 6.39 -6.89 5.94 -7.12 5.39 -7.44 4.98 -7.69 4.53 -7.88 4.12 -8.15 3.74 -8.29 3.32 -8.58 2.98 -8.77 2.57 -8.85 2.15 -9.13 1.78 -9.34 1.35 -9.49 0.9 -9.66 0.42 -9.73 -0.07 -10.01 -0.61 -10.04 -1.2 -10.1 -1.81 -10.16 -2.48 -10.1 -3.17 -10.11 -3.96 -9.82 -4.7 -9.47 -5.44 77.13 -95.26 0.34 0.18 0.37 0.18 0.42 0.16 0.69 0.21 0.89 0.22 1.13 0.19 1.33 0.16 1.46 0.09 1.78 0.01 1.87 -0.08 2 -0.2 2.07 -0.29 2.12 -0.42 2.26 -0.55 2.08 -0.61 2.03 -0.7 1.98 -0.8 1.76 -0.8 1.64 -0.86 1.39 -0.81 1.12 -0.76 0.9 -0.67 0.53 -0.46 0.34 -0.33 0.08 -0.08 -0.19 0.27 -0.41 0.68 -0.49 1.01 -0.48 1.32 -0.41 1.72 -0.24 2.01 0 2.01 -0.05 -5.04zm0.05 5.04c-1.9,-32.37 26.49,-59.72 63.42,-61.08 36.93,-1.36 68.42,23.77 70.32,56.14l-133.74 4.94zm154.85 -536.25l-21.07 536.35 -133.84 -5.14 21.07 -536.35 0 -0.06 133.84 5.2zm-133.84 -5.14c1.27,-32.36 32.26,-57.44 69.22,-56.03 36.96,1.41 65.89,28.81 64.62,61.17l-133.84 -5.14zm-23.62 -27.91l72.61 -97.98 -0.69 -0.39 4.41 2.46 4.26 2.37 4.19 2.33 4.06 2.28 4.03 2.3 4 2.32 4.06 2.43 4 2.49 3.99 2.59 4.18 2.87 4.3 3.17 4.24 3.38 4.32 3.77 4.32 4.18 4.3 4.68 3.98 4.95 3.63 5.16 3.27 5.43 2.89 5.63 2.46 5.8 1.91 5.5 1.54 5.43 1.2 5.42 0.87 5.11 0.65 5.08 0.43 4.97 0.27 4.76 0.15 4.91 0.02 4.85 -0.04 4.79 -0.12 5.03 -0.19 5.12 -133.84 -5.26 0.15 -4.08 0.08 -3.63 0.04 -3.33 -0.02 -2.79 -0.07 -2.27 -0.11 -1.96 -0.11 -1.35 -0.11 -0.86 -0.07 -0.47 0.04 0.18 0.14 0.49 0.29 0.82 0.58 1.36 0.73 1.43 0.85 1.41 0.91 1.3 0.98 1.21 0.96 1.06 0.66 0.64 0.32 0.29 -0.1 -0.08 -0.42 -0.31 -0.9 -0.61 -1.49 -0.97 -1.88 -1.17 -2.22 -1.33 -2.72 -1.58 -3.13 -1.78 -3.54 -1.98 -3.87 -2.17 -4.3 -2.37 -4.61 -2.58 -0.69 -0.39zm0.69 0.39c-31.31,-17.48 -40.75,-53.78 -21.09,-81.04 19.67,-27.26 61.01,-35.2 92.32,-17.72l-71.23 98.76z"/>
      <path id="_1" class="fil2" d="M2224.8 1310.49l-575.14 -329.79c-50.28,-27.41 -116.07,10.63 -116.63,69.36l-16.99 521.82c-2.88,42.66 -2.51,53.52 40.78,78.54l565.35 324c51.3,32.08 138.43,-2.93 135.77,-48.1l21.07 -536.35c2.05,-50.57 -4.78,-51.86 -54.23,-79.47z"/>
     </g>
     <path class="fil3" d="M1992.14 1274.53c13.12,22.98 -5.15,50.42 -38.69,51.33 -11.1,0.3 -21.65,-1.94 -30.99,-7.28 -33.29,-19.02 -139.19,-78.87 -172.3,-98.13 -24.04,-14 -47.86,-28.26 -71.75,-42.43 -14.37,-8.49 -23.94,-19.63 -21.79,-35.47 2.04,-15.05 10.75,-27.11 26.3,-34 12.39,-5.54 25.15,-3.08 37.11,2.59 29.37,13.87 56.96,30.3 84.91,46.26 30.81,17.59 134.09,76.27 164.65,94.21 9.59,5.63 17.5,12.74 22.56,22.92z"/>
    </g>
    <g id="Wabe_x0020_4">
     <g>
      <path class="fil3" d="M2653.41 1494.93l575.14 329.85 -69.42 98.28 -575.14 -329.85 68.07 -99.03 1.35 0.75zm-69.42 98.28c-31.41,-18.01 -41.33,-54.63 -22.17,-81.76 19.17,-27.13 60.17,-34.53 91.58,-16.52l-69.42 98.28zm-15.32 24.17l-133.2 -7.88 -0.02 1.19 0.4 -8.84 1.03 -8.69 1.63 -8.5 2.2 -8.31 2.72 -7.99 3.21 -7.76 3.68 -7.47 4.13 -7.24 4.6 -6.99 4.98 -6.66 5.36 -6.35 5.77 -6.06 6.09 -5.71 6.46 -5.42 6.85 -5.09 7.19 -4.74 7.56 -4.37 7.84 -3.96 8.19 -3.56 8.52 -3.12 8.88 -2.65 9.22 -2.14 9.53 -1.59 9.72 -0.98 10.01 -0.35 10.25 0.35 10.28 1.06 10.33 1.81 10.27 2.56 10.16 3.33 9.95 4.1 9.59 4.79 -66.72 99.78 -0.14 -0.07 0.08 0.04 0.21 0.07 0.26 0.06 0.26 0.05 0.21 0.02 0.2 0.01 0 0.01 -0.23 0.02 -0.3 0.05 -0.49 0.12 -0.67 0.21 -0.83 0.3 -0.96 0.42 -1.08 0.54 -1.08 0.63 -1.15 0.76 -1.17 0.87 -1.2 1 -1.19 1.11 -1.09 1.16 -1.06 1.25 -0.98 1.3 -0.86 1.31 -0.79 1.38 -0.7 1.43 -0.59 1.42 -0.48 1.42 -0.36 1.32 -0.25 1.35 -0.17 1.34 -0.06 1.35 -0.02 1.19zm0.02 -1.19c-0.31,32.53 -30.4,57.67 -67.19,56.16 -36.79,-1.51 -66.36,-29.13 -66.05,-61.66l133.24 5.5zm-150.21 515.2l16.99 -521.89 133.2 7.88 -16.99 521.89 -0.09 1.81 -133.11 -9.68zm133.2 7.88c-1.06,32.49 -31.74,57.07 -68.52,54.91 -36.78,-2.17 -65.74,-30.29 -64.68,-62.78l133.2 7.88zm8.87 25.48l-69.38 98.28 -0.23 -0.13 -4.72 -2.76 -4.64 -2.81 -4.5 -2.83 -4.35 -2.84 -4.38 -3 -4.41 -3.19 -4.27 -3.3 -4.28 -3.53 -4.22 -3.76 -4.06 -3.95 -4 -4.27 -3.84 -4.54 -3.65 -4.83 -3.36 -5.05 -3.05 -5.25 -2.66 -5.34 -2.28 -5.37 -1.89 -5.36 -1.49 -5.17 -1.19 -5.12 -0.89 -4.98 -0.62 -4.72 -0.43 -4.6 -0.24 -4.39 -0.12 -4.19 -0.01 -4.21 0.07 -4.07 0.14 -3.97 0.18 -3.97 0.23 -3.94 0.24 -4 0.27 -4.09 133.02 11.49 -0.25 3.73 -0.22 3.48 -0.17 3.18 -0.14 2.83 -0.08 2.53 -0.05 2.15 0.01 1.73 0.04 1.49 0.06 1.05 0.05 0.62 0.04 0.3 -0.03 -0.14 -0.11 -0.46 -0.19 -0.67 -0.35 -0.98 -0.48 -1.13 -0.6 -1.2 -0.69 -1.19 -0.7 -1.05 -0.69 -0.91 -0.54 -0.64 -0.36 -0.39 -0.06 -0.07 0.14 0.14 0.48 0.39 0.89 0.68 1.17 0.85 1.62 1.1 2.11 1.38 2.4 1.51 2.74 1.65 3.16 1.86 -0.23 -0.13zm0.23 0.13c31.33,18.11 41.1,54.75 21.83,81.81 -19.28,27.06 -60.33,34.32 -91.66,16.21l69.84 -98.02zm495.75 422.19l-565.35 -324.05 69.38 -98.28 565.35 324.05 2.35 1.4 -71.72 96.88zm69.38 -98.28c31.41,18 41.34,54.61 22.2,81.74 -19.15,27.13 -60.16,34.54 -91.57,16.54l69.38 -98.28zm34.51 -3.26l133.16 8.57 -0.05 -5.13 -0.02 10.52 -1.25 10.24 -2.41 9.86 -3.38 9.21 -4.18 8.58 -4.88 8 -5.49 7.43 -5.94 6.81 -6.35 6.29 -6.73 5.8 -6.98 5.29 -7.28 4.86 -7.54 4.47 -7.81 4.07 -7.99 3.66 -8.14 3.26 -8.38 2.91 -8.65 2.55 -8.84 2.15 -9.03 1.75 -9.15 1.32 -9.41 0.89 -9.58 0.42 -9.67 -0.07 -9.96 -0.61 -10.02 -1.2 -10.13 -1.81 -10.17 -2.49 -10.18 -3.19 -10.19 -4 -9.94 -4.75 -9.64 -5.53 74.07 -95.48 0.17 0.09 0.27 0.13 0.32 0.12 0.63 0.19 0.86 0.21 1.1 0.19 1.35 0.16 1.51 0.09 1.86 0.01 1.95 -0.08 2.08 -0.21 2.24 -0.32 2.24 -0.43 2.25 -0.55 2.22 -0.65 2.21 -0.77 2.15 -0.86 1.92 -0.88 1.71 -0.89 1.52 -0.89 1.28 -0.86 1.04 -0.79 0.71 -0.6 0.43 -0.43 0.16 -0.17 -0.13 0.17 -0.28 0.49 -0.42 0.87 -0.46 1.28 -0.43 1.77 -0.23 1.97 0 2.11 -0.05 -5.13zm0.05 5.13c-1.92,-32.57 26.31,-59.35 63.05,-59.81 36.74,-0.46 68.09,25.56 70.01,58.13l-133.06 1.68zm154.17 -532.98l-21.07 536.43 -133.16 -8.57 21.07 -536.43 0 -0.05 133.16 8.62zm-133.16 -8.57c1.27,-32.48 32.12,-56.89 68.89,-54.54 36.77,2.36 65.54,30.63 64.27,63.11l-133.16 -8.57zm-22.36 -26.05l69.42 -98.28 -0.72 -0.4 4.41 2.46 4.26 2.36 4.2 2.35 4.07 2.28 4.04 2.3 4.03 2.34 4.01 2.4 4.04 2.5 4.18 2.72 4.25 2.93 4.29 3.17 4.33 3.45 4.42 3.86 4.5 4.35 4.29 4.68 4.06 5.01 3.84 5.45 3.45 5.73 2.94 5.79 2.4 5.66 1.98 5.65 1.6 5.66 1.22 5.48 0.89 5.27 0.63 5.03 0.44 4.94 0.28 4.95 0.14 4.84 0.03 4.8 -0.04 4.94 -0.13 4.97 -0.18 5.12 -133.16 -8.67 0.14 -4.08 0.09 -3.69 0.04 -3.2 -0.03 -2.84 -0.06 -2.32 -0.1 -1.79 -0.12 -1.38 -0.11 -0.91 -0.05 -0.31 0.06 0.24 0.2 0.7 0.34 0.99 0.52 1.22 0.8 1.57 1.03 1.71 1.12 1.59 1.04 1.29 0.97 1.06 0.84 0.81 0.42 0.38 -0.01 -0.01 -0.43 -0.31 -0.83 -0.57 -1.3 -0.84 -1.84 -1.14 -2.27 -1.36 -2.69 -1.56 -3.12 -1.78 -3.53 -1.98 -3.86 -2.15 -4.3 -2.38 -4.61 -2.58 -0.72 -0.4zm0.72 0.4c-31.64,-17.67 -42.08,-54.19 -23.32,-81.54 18.77,-27.35 59.65,-35.21 91.29,-17.54l-67.98 99.08z"/>
      <path id="_1_0" class="fil4" d="M3193.84 1873.92l-575.14 -329.85c-51.56,-28.12 -116.1,14.6 -116.63,69.38l-16.99 521.89c-2.88,42.68 -2.51,53.54 40.78,78.56l565.35 324.05c51.31,32.08 138.44,-2.92 135.77,-48.11l21.07 -536.43c2.04,-50.59 -4.78,-51.87 -54.23,-79.48z"/>
     </g>
     <path class="fil5" d="M2973.67 1867.05c13.12,22.98 -5.15,50.42 -38.68,51.33 -11.1,0.3 -21.66,-1.94 -31,-7.28 -33.29,-19.02 -139.19,-78.87 -172.3,-98.13 -24.04,-14 -47.86,-28.26 -71.74,-42.43 -14.38,-8.49 -23.95,-19.63 -21.8,-35.47 2.05,-15.06 10.75,-27.11 26.3,-34.01 12.4,-5.53 25.15,-3.07 37.11,2.6 29.37,13.87 56.96,30.3 84.91,46.26 30.81,17.59 134.09,76.27 164.65,94.21 9.59,5.63 17.51,12.74 22.56,22.92z"/>
    </g>
    <g id="Wabe_x0020_3">
     <g>
      <path class="fil1" d="M2654.81 542.13l575.14 329.79 -72.23 97.48 -575.14 -329.79 70.94 -98.21 1.3 0.73zm-72.23 97.48c-30.91,-17.72 -39.8,-53.93 -19.87,-80.84 19.94,-26.91 61.19,-34.36 92.1,-16.64l-72.23 97.48zm-13.91 22.83l-133.2 -4.42 -0.02 1.16 0.39 -8.97 1.02 -8.85 1.61 -8.67 2.2 -8.53 2.76 -8.27 3.28 -8 3.79 -7.73 4.28 -7.48 4.77 -7.2 5.19 -6.86 5.62 -6.54 6.01 -6.18 6.42 -5.86 6.82 -5.51 7.17 -5.12 7.51 -4.72 7.81 -4.29 8.16 -3.89 8.47 -3.43 8.73 -2.96 9.13 -2.48 9.28 -1.91 9.52 -1.37 9.75 -0.78 9.86 -0.15 10.07 0.51 10.07 1.19 9.98 1.87 9.87 2.55 9.78 3.27 9.55 3.97 9.18 4.6 -69.64 98.94 -0.33 -0.16 -0.12 -0.05 0.01 0.01 -0.02 -0.01 0.05 0.01 0.1 0.01 0.08 0.01 -0.09 0.01 -0.14 0 -0.29 0.05 -0.43 0.09 -0.42 0.12 -0.66 0.22 -0.72 0.29 -0.77 0.37 -0.89 0.49 -0.89 0.56 -0.93 0.66 -0.9 0.73 -0.94 0.86 -0.93 0.96 -0.88 1.02 -0.85 1.12 -0.77 1.16 -0.72 1.26 -0.67 1.37 -0.58 1.41 -0.5 1.48 -0.4 1.54 -0.31 1.68 -0.2 1.76 -0.09 1.92 -0.02 1.16zm0.02 -1.16c-0.31,32.22 -30.4,57.87 -67.19,57.3 -36.79,-0.57 -66.36,-27.18 -66.05,-59.4l133.24 2.1zm-150.21 518.56l16.99 -521.82 133.2 4.42 -16.99 521.82 -0.09 1.78 -133.11 -6.2zm133.2 4.42c-1.04,32.21 -31.72,57.33 -68.5,56.11 -36.78,-1.22 -65.74,-28.32 -64.7,-60.53l133.2 4.42zm10.29 27.58l-72.21 97.5 -0.23 -0.13 -4.68 -2.75 -4.6 -2.78 -4.47 -2.8 -4.3 -2.82 -4.32 -2.95 -4.39 -3.18 -4.19 -3.24 -4.09 -3.38 -4.07 -3.62 -4.02 -3.89 -4.01 -4.27 -3.71 -4.41 -3.49 -4.62 -3.29 -4.95 -2.94 -5.06 -2.57 -5.14 -2.22 -5.25 -1.86 -5.26 -1.5 -5.2 -1.14 -4.97 -0.85 -4.79 -0.62 -4.68 -0.41 -4.45 -0.26 -4.35 -0.12 -4.34 0 -4.1 0.06 -3.97 0.14 -4.03 0.18 -3.97 0.22 -3.94 0.25 -3.99 0.27 -4.08 133.02 7.97 -0.25 3.74 -0.21 3.47 -0.18 3.2 -0.14 2.83 -0.08 2.47 -0.04 2.23 0 1.84 0.04 1.34 0.06 1.09 0.07 0.77 0.04 0.34 0.01 0.03 -0.08 -0.31 -0.2 -0.68 -0.32 -0.9 -0.42 -1.01 -0.49 -0.98 -0.6 -1.02 -0.63 -0.95 -0.51 -0.68 -0.43 -0.51 -0.37 -0.39 -0.02 -0.03 0.31 0.28 0.67 0.54 0.95 0.74 1.19 0.86 1.68 1.15 2.16 1.4 2.43 1.54 2.78 1.68 3.2 1.87 -0.23 -0.13zm0.23 0.13c30.84,17.83 39.57,54.07 19.51,80.91 -20.07,26.84 -61.34,34.16 -92.18,16.33l72.67 -97.24zm492.92 421.36l-565.36 -324 72.21 -97.5 565.36 324 2.26 1.35 -74.47 96.15zm72.21 -97.5c30.92,17.72 39.82,53.92 19.89,80.84 -19.94,26.92 -61.18,34.38 -92.1,16.66l72.21 -97.5zm33.07 -1.91l133.18 5.12 -0.05 -5.03 -0.02 10.4 -1.25 10.17 -2.41 9.86 -3.39 9.25 -4.22 8.67 -4.97 8.11 -5.54 7.51 -6.04 6.92 -6.46 6.4 -6.85 5.9 -7.09 5.38 -7.44 4.97 -7.63 4.51 -7.89 4.12 -8.17 3.74 -8.25 3.31 -8.56 2.97 -8.76 2.57 -8.82 2.15 -9.13 1.77 -9.3 1.35 -9.48 0.9 -9.64 0.42 -9.71 -0.07 -9.98 -0.62 -10.02 -1.19 -10.09 -1.81 -10.13 -2.47 -10.08 -3.17 -10.08 -3.94 -9.8 -4.7 -9.44 -5.41 76.73 -94.8 0.37 0.21 0.39 0.18 0.45 0.18 0.71 0.21 0.92 0.23 1.14 0.19 1.35 0.17 1.49 0.08 1.8 0.01 1.89 -0.08 2.01 -0.2 2.09 -0.29 2.14 -0.43 2.27 -0.55 2.11 -0.61 2.03 -0.71 2.04 -0.81 1.74 -0.8 1.63 -0.86 1.43 -0.83 1.14 -0.77 0.91 -0.68 0.59 -0.5 0.32 -0.32 0.06 -0.06 -0.18 0.25 -0.37 0.62 -0.46 0.94 -0.47 1.34 -0.43 1.75 -0.23 1.92 0 1.99 -0.05 -5.03zm0.05 5.03c-1.9,-32.2 26.34,-59.42 63.09,-60.78 36.75,-1.36 68.09,23.65 69.99,55.84l-133.08 4.94zm154.19 -536.26l-21.07 536.35 -133.18 -5.12 21.07 -536.35 0.01 -0.06 133.17 5.18zm-133.18 -5.12c1.26,-32.2 32.11,-57.16 68.88,-55.75 36.77,1.41 65.56,28.67 64.3,60.87l-133.18 -5.12zm-23.75 -28.17l72.23 -97.48 -0.68 -0.39 4.41 2.46 4.26 2.36 4.19 2.34 4.06 2.28 4.03 2.3 4 2.32 4.05 2.42 4 2.49 3.98 2.59 4.17 2.86 4.29 3.16 4.22 3.38 4.31 3.75 4.31 4.17 4.29 4.66 3.97 4.94 3.62 5.15 3.26 5.4 2.88 5.62 2.45 5.78 1.91 5.49 1.53 5.41 1.2 5.41 0.87 5.1 0.64 5.06 0.43 4.96 0.27 4.76 0.15 4.9 0.03 4.85 -0.05 4.78 -0.12 5.03 -0.19 5.12 -133.16 -5.24 0.15 -4.08 0.08 -3.63 0.03 -3.34 -0.01 -2.79 -0.07 -2.28 -0.11 -1.96 -0.11 -1.36 -0.12 -0.88 -0.07 -0.48 0.04 0.17 0.13 0.47 0.29 0.81 0.57 1.34 0.72 1.42 0.84 1.38 0.9 1.29 0.97 1.2 0.95 1.04 0.65 0.63 0.31 0.27 -0.12 -0.08 -0.43 -0.32 -0.91 -0.62 -1.5 -0.97 -1.88 -1.17 -2.23 -1.34 -2.72 -1.58 -3.13 -1.78 -3.54 -1.98 -3.87 -2.16 -4.3 -2.38 -4.61 -2.58 -0.68 -0.39zm0.68 0.39c-31.16,-17.4 -40.55,-53.51 -20.99,-80.64 19.57,-27.13 60.7,-35.02 91.86,-17.62l-70.88 98.26z"/>
      <path id="_1_1" class="fil2" d="M3193.83 920.66l-575.14 -329.79c-50.28,-27.41 -116.06,10.63 -116.63,69.36l-16.99 521.82c-2.88,42.66 -2.5,53.52 40.78,78.54l565.36 324c51.3,32.08 138.43,-2.93 135.76,-48.1l21.07 -536.35c2.05,-50.57 -4.78,-51.86 -54.23,-79.47z"/>
     </g>
     <path class="fil3" d="M2973.67 881.05c13.12,22.98 -5.15,50.42 -38.69,51.33 -11.1,0.3 -21.65,-1.94 -30.99,-7.27 -33.29,-19.03 -139.19,-78.88 -172.3,-98.14 -24.04,-14 -47.86,-28.26 -71.75,-42.43 -14.38,-8.49 -23.94,-19.63 -21.79,-35.47 2.04,-15.05 10.75,-27.11 26.3,-34 12.39,-5.54 25.14,-3.08 37.11,2.59 29.37,13.87 56.96,30.3 84.91,46.26 30.81,17.59 134.09,76.27 164.65,94.21 9.59,5.63 17.5,12.74 22.56,22.92z"/>
    </g>
    <g id="Wabe_x0020_2">
     <g>
      <path class="fil3" d="M3630 1090.17l575.14 329.86 -69.42 98.28 -575.14 -329.86 68.07 -99.03 1.35 0.75zm-69.42 98.28c-31.41,-18.01 -41.33,-54.63 -22.17,-81.76 19.17,-27.13 60.17,-34.53 91.58,-16.52l-69.42 98.28zm-15.32 24.17l-133.2 -7.88 -0.02 1.19 0.4 -8.84 1.03 -8.69 1.63 -8.5 2.2 -8.31 2.72 -7.99 3.21 -7.76 3.68 -7.47 4.13 -7.24 4.6 -7 4.98 -6.65 5.36 -6.35 5.77 -6.07 6.09 -5.7 6.46 -5.42 6.85 -5.09 7.19 -4.74 7.56 -4.38 7.84 -3.95 8.19 -3.56 8.53 -3.12 8.87 -2.65 9.22 -2.15 9.53 -1.58 9.72 -0.98 10.01 -0.35 10.25 0.34 10.28 1.07 10.33 1.8 10.27 2.57 10.16 3.33 9.95 4.1 9.59 4.79 -66.72 99.78 -0.14 -0.07 0.08 0.04 0.21 0.07 0.26 0.07 0.26 0.04 0.21 0.03 0.2 0 0 0.01 -0.23 0.02 -0.3 0.06 -0.49 0.11 -0.68 0.21 -0.82 0.3 -0.96 0.42 -1.08 0.55 -1.08 0.62 -1.15 0.76 -1.17 0.87 -1.2 1 -1.19 1.12 -1.09 1.15 -1.06 1.25 -0.98 1.31 -0.86 1.3 -0.79 1.38 -0.7 1.43 -0.59 1.42 -0.48 1.42 -0.36 1.32 -0.25 1.35 -0.17 1.34 -0.06 1.35 -0.02 1.19zm0.02 -1.19c-0.31,32.53 -30.4,57.67 -67.19,56.16 -36.79,-1.51 -66.36,-29.13 -66.05,-61.66l133.24 5.5zm-150.21 515.22l16.99 -521.91 133.2 7.88 -16.99 521.91 -0.09 1.81 -133.11 -9.68zm133.2 7.88c-1.06,32.49 -31.74,57.07 -68.52,54.91 -36.78,-2.17 -65.74,-30.29 -64.68,-62.78l133.2 7.88zm8.87 25.47l-69.38 98.3 -0.24 -0.14 -4.71 -2.76 -4.64 -2.8 -4.5 -2.84 -4.41 -2.88 -4.39 -3.01 -4.27 -3.1 -4.34 -3.33 -4.28 -3.54 -4.15 -3.7 -4.13 -4.01 -4 -4.27 -3.89 -4.6 -3.6 -4.78 -3.32 -4.98 -3.12 -5.36 -2.65 -5.34 -2.24 -5.28 -1.91 -5.39 -1.5 -5.22 -1.17 -5.07 -0.89 -4.97 -0.63 -4.74 -0.43 -4.61 -0.24 -4.39 -0.12 -4.19 -0.01 -4.21 0.07 -4.06 0.14 -3.97 0.18 -3.97 0.23 -3.95 0.24 -4 0.27 -4.08 133.02 11.49 -0.25 3.74 -0.22 3.46 -0.17 3.19 -0.14 2.83 -0.08 2.53 -0.05 2.14 0.01 1.73 0.04 1.49 0.06 1.07 0.05 0.61 0.03 0.28 -0.03 -0.15 -0.09 -0.41 -0.2 -0.7 -0.37 -1.03 -0.44 -1.04 -0.59 -1.18 -0.76 -1.3 -0.66 -1 -0.64 -0.84 -0.59 -0.7 -0.36 -0.39 -0.13 -0.13 0.21 0.18 0.48 0.4 0.82 0.63 1.31 0.94 1.61 1.11 2.05 1.34 2.4 1.5 2.74 1.66 3.17 1.86 -0.24 -0.14zm0.24 0.14c31.33,18.12 41.09,54.76 21.81,81.82 -19.29,27.06 -60.33,34.32 -91.66,16.2l69.86 -98.02zm495.74 422.21l-565.35 -324.06 69.38 -98.3 565.35 324.06 2.35 1.41 -71.72 96.89zm69.38 -98.3c31.41,18 41.34,54.61 22.2,81.75 -19.15,27.14 -60.16,34.55 -91.57,16.55l69.38 -98.3zm34.51 -3.25l133.16 8.57 -0.05 -5.13 -0.02 10.52 -1.25 10.24 -2.41 9.86 -3.38 9.22 -4.18 8.57 -4.88 8 -5.49 7.43 -5.94 6.81 -6.35 6.29 -6.73 5.8 -6.98 5.29 -7.28 4.87 -7.54 4.46 -7.81 4.07 -7.99 3.66 -8.14 3.26 -8.38 2.91 -8.65 2.55 -8.84 2.15 -9.03 1.75 -9.15 1.32 -9.41 0.89 -9.58 0.42 -9.67 -0.07 -9.96 -0.61 -10.02 -1.2 -10.13 -1.81 -10.17 -2.49 -10.18 -3.19 -10.19 -4 -9.94 -4.75 -9.64 -5.53 74.07 -95.48 0.17 0.09 0.27 0.13 0.32 0.12 0.63 0.19 0.86 0.21 1.1 0.19 1.35 0.16 1.51 0.09 1.86 0.01 1.95 -0.08 2.08 -0.21 2.24 -0.32 2.24 -0.43 2.25 -0.55 2.22 -0.65 2.21 -0.77 2.15 -0.86 1.92 -0.88 1.71 -0.89 1.52 -0.9 1.28 -0.85 1.04 -0.79 0.71 -0.6 0.43 -0.43 0.16 -0.17 -0.13 0.17 -0.28 0.49 -0.42 0.86 -0.46 1.29 -0.43 1.77 -0.23 1.97 0 2.11 -0.05 -5.13zm0.05 5.13c-1.92,-32.57 26.31,-59.35 63.05,-59.81 36.74,-0.46 68.09,25.56 70.01,58.13l-133.06 1.68zm154.17 -533l-21.07 536.45 -133.16 -8.57 21.07 -536.45 0 -0.05 133.16 8.62zm-133.16 -8.57c1.27,-32.48 32.12,-56.89 68.89,-54.54 36.77,2.36 65.54,30.63 64.27,63.11l-133.16 -8.57zm-22.36 -26.05l69.42 -98.28 -0.72 -0.4 4.41 2.46 4.26 2.36 4.2 2.34 4.07 2.28 4.04 2.31 4.02 2.34 4.02 2.4 4.04 2.5 4.18 2.72 4.24 2.93 4.3 3.17 4.33 3.45 4.42 3.85 4.5 4.36 4.29 4.68 4.06 5.01 3.84 5.45 3.44 5.73 2.95 5.79 2.4 5.66 1.98 5.65 1.6 5.66 1.22 5.48 0.89 5.27 0.63 5.03 0.44 4.94 0.28 4.95 0.14 4.84 0.03 4.8 -0.04 4.94 -0.13 4.97 -0.18 5.12 -133.16 -8.67 0.14 -4.08 0.09 -3.69 0.04 -3.2 -0.03 -2.84 -0.06 -2.32 -0.1 -1.79 -0.12 -1.38 -0.11 -0.91 -0.05 -0.31 0.06 0.24 0.2 0.7 0.34 0.99 0.52 1.22 0.81 1.57 1.02 1.71 1.12 1.59 1.04 1.29 0.97 1.06 0.84 0.82 0.42 0.37 -0.01 -0.01 -0.42 -0.31 -0.84 -0.57 -1.3 -0.84 -1.84 -1.14 -2.26 -1.36 -2.7 -1.56 -3.12 -1.77 -3.53 -1.98 -3.86 -2.16 -4.3 -2.38 -4.61 -2.58 -0.72 -0.4zm0.72 0.4c-31.64,-17.67 -42.08,-54.19 -23.32,-81.54 18.77,-27.35 59.65,-35.21 91.29,-17.54l-67.98 99.08z"/>
      <path id="_1_2" class="fil4" d="M4170.42 1469.17l-575.14 -329.86c-51.56,-28.12 -116.1,14.6 -116.63,69.38l-16.99 521.91c-2.88,42.67 -2.51,53.53 40.78,78.56l565.35 324.06c51.31,32.08 138.44,-2.92 135.77,-48.11l21.07 -536.45c2.04,-50.59 -4.78,-51.87 -54.23,-79.48z"/>
     </g>
     <path class="fil5" d="M3941.56 1462.31c13.12,22.98 -5.16,50.43 -38.69,51.33 -11.1,0.3 -21.65,-1.94 -30.99,-7.27 -33.29,-19.03 -139.2,-78.88 -172.3,-98.14 -24.05,-14 -47.87,-28.26 -71.75,-42.42 -14.38,-8.5 -23.94,-19.64 -21.79,-35.48 2.04,-15.05 10.74,-27.1 26.29,-34 12.4,-5.53 25.15,-3.08 37.12,2.59 29.36,13.88 56.95,30.31 84.91,46.27 30.8,17.59 134.09,76.26 164.65,94.2 9.59,5.63 17.5,12.74 22.56,22.92z"/>
    </g>
    <g id="Wabe_x0020_1">
     <g>
      <path class="fil1" d="M3631.41 2042.65l575.15 329.79 -72.23 97.48 -575.15 -329.79 70.95 -98.21 1.29 0.73zm-72.23 97.48c-30.91,-17.72 -39.8,-53.93 -19.87,-80.84 19.94,-26.91 61.19,-34.36 92.1,-16.64l-72.23 97.48zm-13.91 22.83l-133.2 -4.42 -0.02 1.16 0.39 -8.96 1.02 -8.86 1.61 -8.69 2.2 -8.52 2.76 -8.25 3.27 -8 3.8 -7.75 4.28 -7.48 4.79 -7.23 5.17 -6.82 5.6 -6.52 6.06 -6.24 6.39 -5.82 6.78 -5.49 7.21 -5.15 7.51 -4.72 7.81 -4.29 8.16 -3.89 8.47 -3.43 8.8 -2.98 9.06 -2.45 9.28 -1.92 9.52 -1.36 9.75 -0.79 9.94 -0.14 9.92 0.5 10.07 1.18 10.05 1.88 9.93 2.57 9.78 3.29 9.49 3.94 9.19 4.6 -69.66 98.94 -0.32 -0.16 -0.18 -0.08 0.01 0.01 0.04 0.01 0.12 0.02 0.1 0.02 -0.07 0 -0.01 0 -0.14 0.01 -0.29 0.04 -0.43 0.1 -0.49 0.13 -0.59 0.2 -0.72 0.29 -0.77 0.37 -0.89 0.49 -0.89 0.56 -0.89 0.63 -0.94 0.77 -0.97 0.88 -0.88 0.9 -0.9 1.06 -0.87 1.14 -0.75 1.13 -0.72 1.26 -0.66 1.35 -0.59 1.43 -0.5 1.5 -0.4 1.53 -0.31 1.66 -0.2 1.77 -0.09 1.93 -0.02 1.16zm0.02 -1.16c-0.31,32.22 -30.4,57.87 -67.19,57.3 -36.79,-0.57 -66.36,-27.18 -66.05,-59.4l133.24 2.1zm-150.21 518.55l16.99 -521.81 133.2 4.42 -16.99 521.81 -0.09 1.77 -133.11 -6.19zm133.2 4.42c-1.04,32.21 -31.72,57.33 -68.5,56.11 -36.78,-1.22 -65.74,-28.32 -64.7,-60.53l133.2 4.42zm10.29 27.58l-72.21 97.5 -0.23 -0.13 -4.68 -2.75 -4.6 -2.78 -4.4 -2.77 -4.37 -2.84 -4.43 -3.04 -4.27 -3.1 -4.15 -3.2 -4.08 -3.36 -4.18 -3.72 -4.08 -3.96 -3.83 -4.1 -3.72 -4.4 -3.57 -4.72 -3.26 -4.91 -2.95 -5.07 -2.6 -5.23 -2.2 -5.2 -1.83 -5.18 -1.48 -5.1 -1.16 -5.02 -0.87 -4.88 -0.62 -4.67 -0.42 -4.57 -0.24 -4.33 -0.12 -4.17 -0.02 -4.1 0.07 -4.05 0.14 -4.03 0.18 -3.97 0.22 -3.94 0.25 -3.99 0.27 -4.07 133.02 7.95 -0.25 3.75 -0.21 3.47 -0.18 3.2 -0.14 2.83 -0.08 2.47 -0.03 2.15 0 1.84 0.04 1.51 0.06 1.11 0.06 0.67 0.04 0.33 -0.01 -0.04 -0.08 -0.36 -0.18 -0.6 -0.29 -0.82 -0.4 -0.94 -0.54 -1.09 -0.59 -1.01 -0.62 -0.93 -0.59 -0.78 -0.42 -0.5 -0.19 -0.22 -0.1 -0.08 0.2 0.16 0.68 0.56 1.01 0.78 1.29 0.94 1.57 1.08 2.09 1.36 2.5 1.57 2.78 1.68 3.2 1.87 -0.23 -0.13zm0.23 0.13c30.84,17.83 39.57,54.07 19.51,80.91 -20.07,26.84 -61.34,34.16 -92.18,16.33l72.67 -97.24zm492.92 421.36l-565.36 -324 72.21 -97.5 565.36 324 2.26 1.35 -74.47 96.15zm72.21 -97.5c30.92,17.72 39.82,53.92 19.89,80.84 -19.94,26.92 -61.18,34.38 -92.1,16.66l72.21 -97.5zm33.08 -1.91l133.18 5.12 -0.05 -5.02 -0.02 10.39 -1.26 10.23 -2.41 9.8 -3.36 9.2 -4.24 8.72 -5 8.15 -5.55 7.51 -6.01 6.88 -6.43 6.37 -6.87 5.93 -7.1 5.38 -7.43 4.97 -7.67 4.52 -7.86 4.11 -8.14 3.73 -8.27 3.32 -8.57 2.97 -8.75 2.57 -8.83 2.15 -9.12 1.77 -9.32 1.35 -9.47 0.9 -9.64 0.42 -9.71 -0.07 -9.98 -0.62 -10.02 -1.19 -10.09 -1.81 -10.13 -2.47 -10.08 -3.17 -10.08 -3.94 -9.8 -4.7 -9.44 -5.41 76.73 -94.8 0.37 0.21 0.39 0.18 0.45 0.18 0.71 0.21 0.92 0.23 1.14 0.19 1.35 0.17 1.49 0.08 1.8 0.01 1.89 -0.08 2.02 -0.2 2.09 -0.29 2.13 -0.43 2.28 -0.55 2.1 -0.61 2.04 -0.71 2 -0.8 1.77 -0.81 1.66 -0.87 1.41 -0.82 1.13 -0.77 0.92 -0.68 0.55 -0.47 0.35 -0.35 0.09 -0.1 -0.17 0.25 -0.4 0.66 -0.48 0.99 -0.46 1.29 -0.41 1.69 -0.24 1.98 0 1.98 -0.05 -5.02zm0.05 5.02c-1.89,-32.2 26.36,-59.42 63.11,-60.77 36.75,-1.35 68.08,23.66 69.97,55.85l-133.08 4.92zm154.19 -536.25l-21.07 536.35 -133.18 -5.12 21.07 -536.35 0 -0.05 133.18 5.17zm-133.18 -5.12c1.26,-32.2 32.11,-57.16 68.88,-55.75 36.77,1.41 65.56,28.67 64.3,60.87l-133.18 -5.12zm-23.75 -28.16l72.23 -97.48 -0.68 -0.39 4.44 2.48 4.22 2.34 4.17 2.32 4.13 2.32 4.02 2.3 3.92 2.27 3.98 2.38 4.09 2.53 4.07 2.66 4.18 2.87 4.21 3.11 4.23 3.38 4.36 3.81 4.25 4.11 4.17 4.53 4.06 5 3.65 5.21 3.3 5.45 2.88 5.67 2.36 5.54 1.97 5.63 1.53 5.43 1.19 5.32 0.89 5.25 0.62 4.97 0.43 4.9 0.28 4.91 0.14 4.82 0.04 4.78 -0.05 4.91 -0.13 4.97 -0.17 5.11 -133.18 -5.22 0.15 -4.09 0.09 -3.69 0.03 -3.21 -0.02 -2.86 -0.06 -2.36 -0.1 -1.81 -0.13 -1.42 -0.12 -0.95 -0.05 -0.33 0.01 0.06 0.15 0.49 0.33 0.95 0.48 1.12 0.74 1.45 0.86 1.43 0.95 1.35 1.04 1.28 0.83 0.91 0.59 0.57 0.38 0.33 -0.13 -0.08 -0.49 -0.37 -0.92 -0.63 -1.39 -0.9 -1.79 -1.11 -2.32 -1.38 -2.8 -1.63 -3.12 -1.78 -3.47 -1.94 -3.91 -2.18 -4.32 -2.4 -4.58 -2.56 -0.68 -0.39zm0.68 0.39c-31.15,-17.4 -40.54,-53.51 -20.98,-80.64 19.57,-27.13 60.7,-35.02 91.85,-17.62l-70.88 98.26z"/>
      <path id="_1_3" class="fil2" d="M4170.43 2421.18l-575.15 -329.79c-50.28,-27.42 -116.06,10.62 -116.63,69.36l-16.99 521.81c-2.87,42.67 -2.5,53.52 40.78,78.54l565.36 324c51.3,32.08 138.43,-2.93 135.77,-48.1l21.07 -536.35c2.04,-50.57 -4.79,-51.85 -54.23,-79.46z"/>
     </g>
     <path class="fil3" d="M3941.55 2381.57c13.12,22.98 -5.15,50.43 -38.69,51.33 -11.1,0.3 -21.65,-1.93 -30.99,-7.27 -33.29,-19.03 -139.19,-78.88 -172.3,-98.14 -24.04,-14 -47.86,-28.26 -71.75,-42.42 -14.37,-8.5 -23.94,-19.64 -21.79,-35.48 2.04,-15.05 10.75,-27.1 26.3,-34 12.39,-5.53 25.15,-3.08 37.11,2.59 29.37,13.88 56.96,30.31 84.91,46.27 30.81,17.59 134.09,76.26 164.65,94.2 9.59,5.63 17.5,12.74 22.56,22.92z"/>
    </g>
   </g>
   <g>
    <g>
     <g>
      <path id="Cat" class="fil5" d="M4114.96 3156.57l-185.1 -1076.35 158.26 -27.52 185.1 1076.35 -155.01 40.16 -3.25 -12.64zm158.26 -27.52c7.56,43.93 -21.76,85.73 -65.45,93.32 -43.69,7.6 -85.26,-21.87 -92.81,-65.8l158.26 -27.52zm186.1 1031.46l-341.11 -991.29 151.76 -52.81 341.11 991.29 -19.07 83.47 -132.7 -30.66zm151.76 -52.81c14.49,42.13 -7.73,88.12 -49.63,102.71 -41.9,14.58 -87.64,-7.77 -102.14,-49.9l151.76 -52.81zm-741.26 581.9l608.57 -612.56 113.63 114.13 -608.57 612.56 -43.81 22.62 -69.82 -136.74zm113.63 114.13c-31.34,31.54 -82.2,31.57 -113.57,0.06 -31.37,-31.51 -31.4,-82.65 -0.06,-114.19l113.63 114.13zm-1205.44 50.64l1135.62 -187.38 26 159.36 -1135.62 187.38 -26.27 -0.05 0.27 -159.31zm26 159.36c-43.76,7.22 -85.07,-22.61 -92.24,-66.61 -7.18,-44 22.48,-85.54 66.24,-92.75l26 159.36zm-1112 -346.69l1112.27 187.38 -26.54 159.26 -1112.27 -187.38 -42.18 -21.23 68.73 -138.03zm-26.54 159.26c-43.73,-7.37 -73.25,-49 -65.93,-92.97 7.33,-43.97 48.74,-73.65 92.47,-66.29l-26.54 159.26zm-578.1 -758.99l646.83 620.96 -110.91 116.81 -646.83 -620.96 -20.37 -85 131.28 -31.81zm-110.91 116.81c-32.07,-30.79 -33.25,-81.91 -2.63,-114.16 30.62,-32.25 81.47,-33.44 113.54,-2.65l-110.91 116.81zm476.55 -1027.28l-345.27 995.47 -151.64 -53.19 345.27 -995.47 155.01 39.95 -3.37 13.23zm-151.64 -53.19c14.6,-42.1 60.39,-64.33 102.27,-49.65 41.87,14.68 63.98,60.73 49.38,102.84l-151.64 -53.19zm331.78 -1019.65l-176.77 1059.6 -158.38 -26.72 176.77 -1059.6 136.18 -43.52 22.2 70.25zm-158.38 -26.72c7.33,-43.97 48.74,-73.64 92.47,-66.27 43.73,7.38 73.23,49.02 65.91,92.99l-158.38 -26.72zm575.46 630.74l-553.26 -560.5 113.99 -113.77 553.26 560.5 -48.52 137.17 -65.47 -23.41zm113.99 -113.77c31.23,31.64 31.04,82.78 -0.43,114.19 -31.47,31.41 -82.33,31.22 -113.56,-0.42l113.99 -113.77zm674.44 60.01l-722.96 77.16 -16.95 -160.58 722.96 -77.16 17.72 0.08 -0.77 160.5zm-16.95 -160.58c44.09,-4.71 83.65,27.42 88.32,71.76 4.68,44.34 -27.28,84.11 -71.37,88.81l-16.95 -160.58zm661.44 237.66l-662.21 -77.16 18.49 -160.42 662.21 77.16 49.86 134.87 -68.35 25.54zm18.49 -160.42c44.05,5.13 75.62,45.21 70.53,89.5 -5.1,44.29 -44.96,76.04 -89.01,70.92l18.49 -160.42zm566.45 -429.8l-516.59 564.67 -118.21 -109.33 516.59 -564.67 138.23 40.9 -20.03 68.43zm-118.21 -109.33c30.02,-32.81 80.83,-34.94 113.47,-4.76 32.64,30.18 34.76,81.28 4.74,114.09l-118.21 -109.33z"/>
      <polygon id="_1_4" class="fil6" points="4008.99,2066.45 4194.09,3142.8 4535.2,4134.1 3926.64,4746.66 2791.02,4934.04 1678.75,4746.66 1031.92,4125.7 1377.19,3130.23 1553.96,2070.63 2107.22,2631.13 2830.18,2553.97 3492.39,2631.13 "/>
     </g>
     <path id="Cat_5" class="fil0" d="M4110.12 3157.42l328.61 955.76 -596.48 545.84 -1051.24 145.75 -1045.76 -145.75 -596.89 -566.76 336.97 -943.18 139.33 -865.84 434.71 464.3 -0.89 0.58 0.9 -0.58 772.24 -81.65 696.14 73.29 0.01 0.01 0 -0.01 422.2 -468.47 160.15 886.73zm-2054.89 -405.72l-0.01 0.01 0.01 0.01 0 -0.02zm0.02 -0.46l2.83 -2.87 -2.83 2.87z"/>
     <polygon id="Ohr_x0020_rechts" class="fil6" points="3891.42,2473.7 3670.86,2805.69 3857.66,2984.07 3899.73,3022.42 "/>
     <g id="Auge_x0020_links">
      <path class="fil6" d="M2538.49 3977.23c0,202.09 -162.92,365.9 -363.89,365.9 -200.97,0 -363.89,-163.81 -363.89,-365.9 0,-87.66 30.68,-168.11 81.8,-231.12l-367.65 -120.22 649.74 -14.53c200.97,0 363.89,163.8 363.89,365.88z"/>
      <polygon class="fil0" points="2225.06,3717.13 2453.11,4044.18 2229.21,4265.88 "/>
     </g>
     <g id="Auge_x0020_rechts">
      <path class="fil6" d="M3814.1 3977.23c0,202.09 -162.9,365.9 -363.89,365.9 -200.97,0 -363.87,-163.81 -363.87,-365.9 0,-202.08 162.9,-365.88 363.87,-365.88l605.24 14.53c-114.78,24.26 -226.81,60.93 -335.33,105.95 58.4,64.9 93.98,150.97 93.98,245.39z"/>
      <polygon class="fil0" points="3509.89,3717.13 3737.94,4044.18 3514.04,4265.88 "/>
     </g>
     <polygon id="Ohr_x0020_links" class="fil6" points="1688.01,2473.7 1908.57,2805.69 1721.76,2984.07 1679.7,3022.42 "/>
     <path id="Mund" class="fil6" d="M2999.62 4222.78l-183.25 219.88 -5.26 108.41 86.6 0c28.25,0 51.37,23.12 51.37,51.37l0 0.01c0,28.25 -23.12,51.37 -51.37,51.37l-198.66 0c-28.25,0 -51.37,-23.12 -51.37,-51.37l0 -0.01c0,-28.25 23.12,-51.37 51.37,-51.37l83.59 0 -3.48 -108.7 -182.03 -219.72 402.51 0.13z"/>
    </g>
   </g>
   <g id="Qubits">
    <path id="Qubit_x0020_hoch" class="fil1 str0" d="M871.08 2263.04c1.21,-0.69 2.44,-1.37 3.67,-2.01 11.01,-5.65 23.44,-8.77 36.75,-8.57 12.85,0.1 25.28,3.34 35.92,8.88 1.13,0.6 2.25,1.22 3.35,1.87 78.2,79.5 212.97,211.89 324.37,325.34 16.07,16.33 15.92,42.3 -0.42,58.37l-59.12 58.21c-16.53,15.75 -42.52,15.59 -58.6,-0.76l-165.31 -168.12 -2.49 286.8c138.26,37.54 238.82,164.65 237.64,314.35 -1.48,149.96 -104.48,275 -243.28,310.07l-1.35 133.76c-0.54,45.8 -37.83,82.84 -83.61,82.32 -27.07,-0.32 -50.92,-13.33 -65.9,-33.41 -10.48,-14.12 -16.63,-31.51 -16.42,-50.21l1.15 -134.07c-137.94,-37.77 -238.52,-164.87 -237.32,-314.59 1.5,-149.93 104.46,-274.97 243.28,-310.07l2.39 -286.27 -167.85 165.08c-16.33,16.07 -42.52,15.58 -58.62,-0.74l-58.19 -59.09c-16.07,-16.35 -15.59,-42.56 0.74,-58.63 112.27,-110.18 244.48,-235.14 329.24,-318.51z"/>
    <path id="Qubit_x0020_runter" class="fil1 str0" d="M4693.54 3652.96c1.21,0.69 2.44,1.37 3.67,2.01 11.01,5.65 23.44,8.77 36.75,8.57 12.85,-0.1 25.28,-3.34 35.92,-8.88 1.13,-0.6 2.25,-1.22 3.35,-1.87 78.2,-79.5 212.97,-211.89 324.37,-325.34 16.07,-16.33 15.92,-42.3 -0.42,-58.37l-59.12 -58.21c-16.53,-15.75 -42.52,-15.59 -58.6,0.76l-165.31 168.12 -2.49 -286.8c138.26,-37.54 238.82,-164.65 237.64,-314.35 -1.48,-149.96 -104.48,-275 -243.28,-310.07l-1.35 -133.76c-0.54,-45.8 -37.83,-82.84 -83.61,-82.32 -27.07,0.32 -50.92,13.33 -65.9,33.41 -10.48,14.12 -16.63,31.51 -16.42,50.21l1.15 134.07c-137.94,37.77 -238.52,164.87 -237.32,314.59 1.5,149.93 104.46,274.97 243.28,310.07l2.39 286.27 -167.85 -165.08c-16.33,-16.07 -42.52,-15.58 -58.62,0.74l-58.19 59.09c-16.07,16.35 -15.59,42.56 0.74,58.63 112.27,110.18 244.48,235.14 329.24,318.51z"/>
   </g>
  </g>
 </g>
</svg>
